<svg width="48" height="48" viewBox="0 0 48 48" fill="none" xmlns="http://www.w3.org/2000/svg">
<g id="Vector" filter="url(#filter0_d_489_2218)">
<path d="M24 0C13 0 4 9 4 20C4 31 13 40 24 40C35 40 44 31 44 20C44 9 35 0 24 0ZM26 28C26 29.2 25.2 30 24 30C22.8 30 22 29.2 22 28V20C22 18.8 22.8 18 24 18C25.2 18 26 18.8 26 20V28ZM24 14C22.8 14 22 13.2 22 12C22 10.8 22.8 10 24 10C25.2 10 26 10.8 26 12C26 13.2 25.2 14 24 14Z" fill="#18A0FB"/>
</g>
<defs>
<filter id="filter0_d_489_2218" x="0" y="0" width="48" height="48" filterUnits="userSpaceOnUse" color-interpolation-filters="sRGB">
<feFlood flood-opacity="0" result="BackgroundImageFix"/>
<feColorMatrix in="SourceAlpha" type="matrix" values="0 0 0 0 0 0 0 0 0 0 0 0 0 0 0 0 0 0 127 0" result="hardAlpha"/>
<feOffset dy="4"/>
<feGaussianBlur stdDeviation="2"/>
<feComposite in2="hardAlpha" operator="out"/>
<feColorMatrix type="matrix" values="0 0 0 0 0 0 0 0 0 0 0 0 0 0 0 0 0 0 0.1 0"/>
<feBlend mode="normal" in2="BackgroundImageFix" result="effect1_dropShadow_489_2218"/>
<feBlend mode="normal" in="SourceGraphic" in2="effect1_dropShadow_489_2218" result="shape"/>
</filter>
</defs>
</svg>
