<svg width="48" height="48" viewBox="0 0 48 48" fill="none" xmlns="http://www.w3.org/2000/svg">
<g id="Vector" filter="url(#filter0_d_489_2214)">
<path d="M24 0C20.0444 0 16.1776 1.17298 12.8886 3.37061C9.59962 5.56823 7.03617 8.69181 5.52242 12.3463C4.00867 16.0008 3.6126 20.0222 4.3843 23.9018C5.15601 27.7814 7.06082 31.3451 9.85787 34.1421C12.6549 36.9392 16.2186 38.844 20.0982 39.6157C23.9778 40.3874 27.9991 39.9913 31.6537 38.4776C35.3082 36.9638 38.4318 34.4004 40.6294 31.1114C42.827 27.8224 44 23.9556 44 20C44 14.6957 41.8929 9.60859 38.1421 5.85786C34.3914 2.10714 29.3043 0 24 0ZM34 15.5846L24 26.2154C23.6405 26.5946 23.2075 26.8966 22.7274 27.1029C22.2473 27.3092 21.7302 27.4155 21.2077 27.4154H21.0769C20.5389 27.4022 20.0097 27.2763 19.5234 27.0457C19.0371 26.8152 18.6046 26.4851 18.2539 26.0769L13.9154 21.0308C13.7567 20.8841 13.6307 20.7056 13.5456 20.5069C13.4605 20.3083 13.4183 20.094 13.4215 19.8779C13.4248 19.6618 13.4735 19.4488 13.5646 19.2529C13.6557 19.0569 13.787 18.8823 13.95 18.7405C14.113 18.5986 14.3041 18.4927 14.5108 18.4296C14.7175 18.3666 14.9352 18.3478 15.1496 18.3744C15.3641 18.4011 15.5705 18.4726 15.7555 18.5844C15.9404 18.6962 16.0997 18.8456 16.2231 19.0231L20.5615 24.0692C20.6321 24.1517 20.7192 24.2184 20.8173 24.2648C20.9155 24.3112 21.0223 24.3363 21.1308 24.3385C21.2383 24.3412 21.3451 24.3215 21.4445 24.2804C21.5439 24.2393 21.6335 24.1779 21.7077 24.1L31.7846 13.4692C32.0695 13.1927 32.4502 13.0371 32.8472 13.0348C33.2442 13.0325 33.6267 13.1837 33.9147 13.4569C34.2028 13.73 34.3741 14.104 34.3929 14.5005C34.4116 14.897 34.2764 15.2855 34.0154 15.5846H34Z" fill="#1DB949"/>
</g>
<defs>
<filter id="filter0_d_489_2214" x="0" y="0" width="48" height="48" filterUnits="userSpaceOnUse" color-interpolation-filters="sRGB">
<feFlood flood-opacity="0" result="BackgroundImageFix"/>
<feColorMatrix in="SourceAlpha" type="matrix" values="0 0 0 0 0 0 0 0 0 0 0 0 0 0 0 0 0 0 127 0" result="hardAlpha"/>
<feOffset dy="4"/>
<feGaussianBlur stdDeviation="2"/>
<feComposite in2="hardAlpha" operator="out"/>
<feColorMatrix type="matrix" values="0 0 0 0 0 0 0 0 0 0 0 0 0 0 0 0 0 0 0.1 0"/>
<feBlend mode="normal" in2="BackgroundImageFix" result="effect1_dropShadow_489_2214"/>
<feBlend mode="normal" in="SourceGraphic" in2="effect1_dropShadow_489_2214" result="shape"/>
</filter>
</defs>
</svg>
