<svg width="48" height="48" viewBox="0 0 48 48" fill="none" xmlns="http://www.w3.org/2000/svg">
<g id="Layer 5" filter="url(#filter0_d_489_2222)">
<path d="M24 0C20.0444 0 16.1776 1.17298 12.8886 3.37061C9.59962 5.56823 7.03617 8.69181 5.52242 12.3463C4.00867 16.0009 3.6126 20.0222 4.3843 23.9018C5.15601 27.7814 7.06082 31.3451 9.85787 34.1421C12.6549 36.9392 16.2186 38.844 20.0982 39.6157C23.9778 40.3874 27.9992 39.9913 31.6537 38.4776C35.3082 36.9638 38.4318 34.4004 40.6294 31.1114C42.827 27.8224 44 23.9556 44 20C44 14.6957 41.8929 9.60859 38.1421 5.85786C34.3914 2.10714 29.3043 0 24 0ZM22.3333 11.6667C22.3333 11.2246 22.5089 10.8007 22.8215 10.4882C23.1341 10.1756 23.558 10 24 10C24.442 10 24.866 10.1756 25.1785 10.4882C25.4911 10.8007 25.6667 11.2246 25.6667 11.6667V21.6667C25.6667 22.1087 25.4911 22.5326 25.1785 22.8452C24.866 23.1577 24.442 23.3333 24 23.3333C23.558 23.3333 23.1341 23.1577 22.8215 22.8452C22.5089 22.5326 22.3333 22.1087 22.3333 21.6667V11.6667ZM24 30C23.6704 30 23.3481 29.9022 23.0741 29.7191C22.8 29.536 22.5864 29.2757 22.4602 28.9711C22.3341 28.6666 22.3011 28.3315 22.3654 28.0082C22.4297 27.6849 22.5884 27.3879 22.8215 27.1548C23.0546 26.9217 23.3516 26.763 23.6749 26.6987C23.9982 26.6344 24.3333 26.6674 24.6378 26.7935C24.9424 26.9197 25.2027 27.1333 25.3858 27.4074C25.5689 27.6815 25.6667 28.0037 25.6667 28.3333C25.6667 28.7754 25.4911 29.1993 25.1785 29.5118C24.866 29.8244 24.442 30 24 30Z" fill="#FFC700"/>
</g>
<defs>
<filter id="filter0_d_489_2222" x="0" y="0" width="48" height="48" filterUnits="userSpaceOnUse" color-interpolation-filters="sRGB">
<feFlood flood-opacity="0" result="BackgroundImageFix"/>
<feColorMatrix in="SourceAlpha" type="matrix" values="0 0 0 0 0 0 0 0 0 0 0 0 0 0 0 0 0 0 127 0" result="hardAlpha"/>
<feOffset dy="4"/>
<feGaussianBlur stdDeviation="2"/>
<feComposite in2="hardAlpha" operator="out"/>
<feColorMatrix type="matrix" values="0 0 0 0 0 0 0 0 0 0 0 0 0 0 0 0 0 0 0.1 0"/>
<feBlend mode="normal" in2="BackgroundImageFix" result="effect1_dropShadow_489_2222"/>
<feBlend mode="normal" in="SourceGraphic" in2="effect1_dropShadow_489_2222" result="shape"/>
</filter>
</defs>
</svg>
